<svg xmlns="http://www.w3.org/2000/svg" viewBox="0 0 560.81 216.67"><defs><style>.cls-1{fill:#3ba04b;}.cls-2{fill:#e1b900;}</style></defs><title>Asset 2</title><g id="Layer_2" data-name="Layer 2"><g id="Layer_1-2" data-name="Layer 1"><path class="cls-1" d="M10,144.53q-7.21-2.94-9.28-8.14t1.55-11q3.62-5.82,13-11.41t24.84-9.27a178.22,178.22,0,0,1,24.57-5A199.28,199.28,0,0,1,87,98a149.11,149.11,0,0,1,25.61,1.59,126.09,126.09,0,0,1,19.35,4.4,49.62,49.62,0,0,1,12,5.31c2.68,1.81,3.8,3.25,3.38,4.32a152.86,152.86,0,0,0-25.07-5.31A178.09,178.09,0,0,0,97.71,107a167.86,167.86,0,0,0-23.5,2,162,162,0,0,0-21.13,4.7,131.83,131.83,0,0,0-17.79,6.65,83.08,83.08,0,0,0-13.66,7.83,38.57,38.57,0,0,0-8.75,8.36Q9.83,140.69,10,144.53Zm14.25,72.14c-2.21,0-3.73-1.18-4.56-3.64s-.87-6-.1-10.6a79.77,79.77,0,0,1,5.17-16.65,160.33,160.33,0,0,1,11.26-21.65,9.73,9.73,0,0,1,.51-.93,8.81,8.81,0,0,0,.52-.94c-2.28,1.36-4.53,2.86-6.76,4.48s-4.43,3.39-6.61,5.28h-.53a3.17,3.17,0,0,1-3.29-2.66,15.8,15.8,0,0,1-.36-6.16,25.62,25.62,0,0,1,1.75-6.72,9.09,9.09,0,0,1,3-4.35c.52-.28,1.49-.71,2.89-1.31s3.18-1.26,5.34-2,4.59-1.51,7.32-2.31,5.67-1.52,8.84-2.19q3.12-4.42,6.56-8.79c2.29-2.9,4.62-5.63,7-8.19s4.67-4.91,7-7.07A43.9,43.9,0,0,1,76,115a9.21,9.21,0,0,1,2.89-1.18,16.94,16.94,0,0,1,3.31-.38,18.87,18.87,0,0,1,4.18.4A15.75,15.75,0,0,1,89.88,115,5.72,5.72,0,0,1,92,116.6a1.42,1.42,0,0,1,.16,1.72,89.36,89.36,0,0,0-7.07,5.94q-3.41,2.83-7.84,7.15T67.77,141.5c1.14-.1,2.25-.19,3.31-.25s2.12-.1,3.17-.12a74.27,74.27,0,0,1,14.6,1.17,37.67,37.67,0,0,1,12.67,4.63c.44.35.42.57-.06.67a16.38,16.38,0,0,1-2.58.17q-10.6.16-20.4,1a93.17,93.17,0,0,0-20.08,4q-4.68,6-9.34,13.07t-9,15.06a185,185,0,0,0-8.15,17,198.21,198.21,0,0,0-6.79,18.79Z"/><path class="cls-1" d="M73.14,196.29a8.13,8.13,0,0,1-3.89-6.9,21.81,21.81,0,0,1,2.3-9.71,52.7,52.7,0,0,1,6.92-10.84,73,73,0,0,1,9.85-10.1,58.85,58.85,0,0,1,11.08-7.46,24.47,24.47,0,0,1,10.75-3,4.19,4.19,0,0,1,1.2.11q4.79.72,6.8,3a10.85,10.85,0,0,1,2.6,4.8,13.88,13.88,0,0,1-.3,6.23,5.59,5.59,0,0,0-3-4.19,11.37,11.37,0,0,0-5.86-1.37,14.61,14.61,0,0,0-7.39,2.1,64.48,64.48,0,0,0-7.86,5.89,83.89,83.89,0,0,0-7.83,7.68A40.5,40.5,0,0,0,83.15,180q-1.86,3.48-.65,5a.73.73,0,0,0,.53.12,9.52,9.52,0,0,0,3.5-1.25q2.43-1.23,5.38-3t6-3.74q3.09-2,5.31-3.46c.44-.45,1.11-1.21,2-2.28s1.93-2.18,3.07-3.3a38.12,38.12,0,0,1,3.33-3,5,5,0,0,1,2.56-1.3,5.8,5.8,0,0,1,2.46.63,10.8,10.8,0,0,1,2.55,1.61,9.59,9.59,0,0,1,1.89,2.16,2.67,2.67,0,0,1,.49,2.11,19.51,19.51,0,0,0-6,3.88,33.76,33.76,0,0,0-4.82,5.37,17.51,17.51,0,0,0-2.64,5.15c-.46,1.6-.33,2.7.39,3.31a.75.75,0,0,0,.53.25c.8,0,2-.6,3.68-1.78s3.54-2.66,5.63-4.46,4.25-3.78,6.47-5.94,4.24-4.17,6.07-6.06,3.32-3.56,4.49-5,1.75-2.39,1.75-2.74h.4q.25,0,.6.39c.22.26.25,1,.1,2.12A21.57,21.57,0,0,1,135.6,169q-2.15,2.88-5.27,6.44t-7,7.4a91,91,0,0,1-7.78,6.95A58.21,58.21,0,0,1,108,195a14.22,14.22,0,0,1-6.46,2.09,9.5,9.5,0,0,1-1.53-.11,3.21,3.21,0,0,1-1.4-.64,6.93,6.93,0,0,1-3.18-4.59,11.62,11.62,0,0,1,.5-5.84q-2.24,1.48-5.25,3.33c-2,1.22-4,2.38-6,3.47s-3.92,2-5.72,2.81a12.3,12.3,0,0,1-4.42,1.2A1.81,1.81,0,0,1,73.14,196.29Z"/><path class="cls-1" d="M175.62,147.89a8.31,8.31,0,0,1,5.19,1.44,4.59,4.59,0,0,1,2.05,3.75q-1.32.28-4.19,2.91a57.06,57.06,0,0,0-5.48,5.79,38.9,38.9,0,0,0-4.15,6q-1.54,2.81-.34,3.59a3.09,3.09,0,0,0,.53.19,2.65,2.65,0,0,0,.67,0,8.5,8.5,0,0,0,3.89-1.32q2.29-1.29,4.53-2.79a40.35,40.35,0,0,0,3.8-2.84c1-.9,1.61-1.39,1.69-1.48.54.17.57.72.1,1.65a16.66,16.66,0,0,1-2.4,3.29q-1.69,1.88-4,4a53,53,0,0,1-4.91,4,40.49,40.49,0,0,1-4.92,3.06,9.57,9.57,0,0,1-4.09,1.26,2.81,2.81,0,0,1-1.46-.37c-2.85-1.55-4.5-3.49-4.93-5.83s.25-4.88,2.07-7.65a31.42,31.42,0,0,0-4.88,1.73q-2.64,1.17-5.26,2.61c-1.76,1-3.42,1.93-5,2.92s-3,1.91-4.2,2.72a120.76,120.76,0,0,0-6.32,11,37.65,37.65,0,0,0-3.44,8.93,7.28,7.28,0,0,1-3.49-2.79,9.92,9.92,0,0,1-1.39-3.76,12.67,12.67,0,0,1,0-3.84,22.5,22.5,0,0,1,.68-3.06,32.17,32.17,0,0,1,1.54-3.4q1.29-2.61,3.15-6.15t4.19-7.56q2.33-4,4.85-7.69a69.35,69.35,0,0,1,5.06-6.58,18.66,18.66,0,0,1,4.78-4.12,12.42,12.42,0,0,1,2-.29,9.43,9.43,0,0,1,3.25.54,10.55,10.55,0,0,1,2.88,1.48,7.85,7.85,0,0,1,1.88,2,1.85,1.85,0,0,1,.3,1.85c-1.32.47-3.24,2-5.76,4.73a99.84,99.84,0,0,0-7.93,9.8q3.42-1.9,7.75-4.49t8.53-5.37q4.2-2.79,7.47-5.36A21.48,21.48,0,0,0,174.3,148,3.53,3.53,0,0,0,175,148,3.66,3.66,0,0,1,175.62,147.89Z"/><path class="cls-1" d="M175.67,196.2a3.31,3.31,0,0,1-1.88-1.3,8.5,8.5,0,0,1-1.3-2.49,13.77,13.77,0,0,1-.64-3,6,6,0,0,1,.22-2.58c.17-.54.64-1.69,1.41-3.47s1.72-3.92,2.88-6.41,2.48-5.19,4-8.08,3.09-5.75,4.77-8.56a91.28,91.28,0,0,1,5.24-7.84,34,34,0,0,1,5.35-5.78,6.85,6.85,0,0,1,3.3-.85,11.36,11.36,0,0,1,5.72,1.5c1.87,1,2.91,2.21,3.1,3.53q-1.19.3-3.92,3.25t-6.05,7.25q-3.32,4.29-6.88,9.39c-2.37,3.39-4.56,6.56-6.54,9.51q2-1.62,5-4.32t6.67-5.94l7.25-6.54q3.66-3.3,6.74-6t5.09-4.46a11,11,0,0,1,2.3-1.76,5.34,5.34,0,0,1,1.58-.16,14.41,14.41,0,0,1,2.13.17,7.1,7.1,0,0,1,2.19.69,4.33,4.33,0,0,1,1.62,1.44,4.25,4.25,0,0,1,.63,2.37c-.79-.07-1.84.67-3.14,2.24a51.66,51.66,0,0,0-3.89,5.43c-1.3,2.05-2.44,4-3.42,6a11,11,0,0,0-1.47,3.8,57.51,57.51,0,0,0,7.67-5.69q4.25-3.64,8.3-7.22t7.12-6.34c2-1.84,3.42-2.86,4.13-3a9.69,9.69,0,0,1,2.51-.43,7.52,7.52,0,0,1,5.53,1.9,4.06,4.06,0,0,1,1.46,4.22c-.44,0-1.23.57-2.36,1.69s-2.41,2.56-3.84,4.3-2.95,3.67-4.55,5.77-3.07,4.14-4.41,6.1-2.48,3.8-3.43,5.49a15.42,15.42,0,0,0-1.66,3.74,25,25,0,0,0,2.36-1.5q1.58-1.08,3.67-2.71l4.52-3.51q2.42-1.89,4.77-3.92,5.63-4.59,12.3-10.27c.62.17.33,1.15-.88,2.93a62.61,62.61,0,0,1-5.27,6.51q-3.45,3.84-8,8.15T235,187.31a85.68,85.68,0,0,1-7.66,6c-2.27,1.54-3.9,2.27-4.87,2.19a3.1,3.1,0,0,1-2.89-2.53,15.15,15.15,0,0,1-.42-6,33.27,33.27,0,0,1,1.67-7.45,26.87,26.87,0,0,1,3.53-7l-7.25,6.15q-3,2.5-5,4.39t-3.65,3.57a45.45,45.45,0,0,0-3,3.56,6.34,6.34,0,0,1-2.26-.9,11.15,11.15,0,0,1-2.49-2,8,8,0,0,1-1.76-2.82,4.64,4.64,0,0,1,0-3.38c.25-.62.57-1.48,1-2.6s.78-2.26,1.21-3.46.82-2.33,1.2-3.4.66-1.82.83-2.27a68.68,68.68,0,0,0-8,7.29q-4.11,4.31-7.75,8.47t-6.45,7.32a16.9,16.9,0,0,1-4.24,3.85h-.4A.71.71,0,0,1,175.67,196.2Z"/><path class="cls-1" d="M283.49,212.59a13.46,13.46,0,0,1-8.55-4.17,16.17,16.17,0,0,1-4-8.88,30.35,30.35,0,0,1,.92-12,43.58,43.58,0,0,1,6.37-13.45,68.39,68.39,0,0,1,12.32-13.38,79.38,79.38,0,0,1,18.69-11.6,15.51,15.51,0,0,1-5.11-9.28,21,21,0,0,1,1.66-11.46A40.24,40.24,0,0,1,314,116.31a60.75,60.75,0,0,1,14.65-10.93l6.16-3.25a71.8,71.8,0,0,1,7.09-3.25,65.08,65.08,0,0,1,7.62-2.45,31,31,0,0,1,7.62-1,20.48,20.48,0,0,1,8.48,1.79,17.68,17.68,0,0,1,7,6,12.38,12.38,0,0,1,2,5.9,28.77,28.77,0,0,1-.26,7.75,34,34,0,0,1-2.45,8.21,30.19,30.19,0,0,1-4.64,7.49,23.44,23.44,0,0,1-6.69,5.5,17.76,17.76,0,0,1-8.75,2.12,18.28,18.28,0,0,1-4.51-.53,6.25,6.25,0,0,1-3-2.85,13.56,13.56,0,0,1-1.93-5.16,10.41,10.41,0,0,1,.6-5.57,6.82,6.82,0,0,1,4.37-3.91,4.33,4.33,0,0,0,2.19,2.32,8,8,0,0,0,3.51.73,13.21,13.21,0,0,0,4.38-.8,12.05,12.05,0,0,0,4-2.38,12.59,12.59,0,0,0,2.91-3.85,9.48,9.48,0,0,0,.87-5.16,8.39,8.39,0,0,0-.54-2.52,10.62,10.62,0,0,0-1.78-3.18,10.26,10.26,0,0,0-3.52-2.72,12.35,12.35,0,0,0-5.56-1.13q-4.65,0-11.6,3.12T325.36,118a46.07,46.07,0,0,0-4.57,4.77,28.63,28.63,0,0,0-4.17,6.49,13.58,13.58,0,0,0-1.33,6.83q.27,3.38,3.85,5.9a13.66,13.66,0,0,0,3,1.32c1.15.35,2.26.64,3.32.86s2,.4,2.71.53,1.17.29,1.26.47.49.64,1.2,1.65a18.77,18.77,0,0,1,1.85,3.45,11.19,11.19,0,0,1,.86,4,3.48,3.48,0,0,1-1.92,3.25c-.09-.35-.57-.53-1.46-.53a29.21,29.21,0,0,0-7.29,1.52,95.7,95.7,0,0,0-11,4.18,102.58,102.58,0,0,0-12,6.36,52.78,52.78,0,0,0-10.27,8.09,23.15,23.15,0,0,0-5.76,9.27,11.78,11.78,0,0,0,1.52,9.94,8.17,8.17,0,0,0,4,3.58,15.73,15.73,0,0,0,6,1.06,40.29,40.29,0,0,0,11.07-1.79,114.22,114.22,0,0,0,12.72-4.57q6.56-2.79,13.19-6.16t12.25-6.7c3.76-2.2,7.12-4.22,10.08-6s5.14-3.2,6.56-4.17q1.32.93-1.93,4.37a78.61,78.61,0,0,1-9.34,8.09q-6.09,4.64-14.31,9.67t-17,9.28a139.68,139.68,0,0,1-17.23,7,49,49,0,0,1-15.11,2.78h-1.39A6.91,6.91,0,0,1,283.49,212.59Z"/><path class="cls-1" d="M345,193.24a6.34,6.34,0,0,1-1.2-4.77,13.39,13.39,0,0,1,2-5,26.68,26.68,0,0,1,4-4.84,58,58,0,0,1,4.57-4q2.19-1.73,3.78-2.85a12,12,0,0,1,1.72-1.13q-1.45-3-2.78-5.7a12.37,12.37,0,0,1-1.46-4.5,8,8,0,0,1,1.79-5.57,20,20,0,0,1,5.3-4.9,31.92,31.92,0,0,1,7.09-3.45,22.12,22.12,0,0,1,7.16-1.32,12.37,12.37,0,0,1,3.18.39,6.25,6.25,0,0,1,2.51,1.33,3.44,3.44,0,0,1,1.2,3.51,11.7,11.7,0,0,1-1.86,4.37,17.2,17.2,0,0,1-3.58,3.91,11.66,11.66,0,0,1-4,2.26c1.5-2,2.21-3.45,2.12-4.24s-.62-1.2-1.59-1.2a9.28,9.28,0,0,0-3.31.8,20.63,20.63,0,0,0-7.16,4.84,5.94,5.94,0,0,0-1.72,3,5.05,5.05,0,0,0,0,2.32,13,13,0,0,0,.79,2.32q3.18-1.59,6.83-3t7.15-2.51c2.34-.75,4.55-1.4,6.63-1.93a29.22,29.22,0,0,1,5.23-.92,2.08,2.08,0,0,1,1.53.79c.31.45.24.75-.2.93-.18.09-1.13.35-2.85.79s-3.82,1.06-6.3,1.86-5.16,1.77-8.08,2.92a55.26,55.26,0,0,0-8.35,4.1,23.51,23.51,0,0,1,2.78,7.16,30.44,30.44,0,0,1,.8,7.82,12.76,12.76,0,0,1-1.26,5,13,13,0,0,1-2.92,4,13.15,13.15,0,0,1-4.1,2.59,12.59,12.59,0,0,1-4.71.93,12.74,12.74,0,0,1-5.7-1.39A14,14,0,0,1,345,193.24Zm15.37-18.15q-2.91,2.39-5,4.5a27.43,27.43,0,0,0-3.24,3.91c-.93,1.37-1.17,2.54-.73,3.51a3.24,3.24,0,0,0,3.18,2,5.79,5.79,0,0,0,3.25-1.12,6,6,0,0,0,2.32-3,34.84,34.84,0,0,0,1.65-5.36,9.65,9.65,0,0,0-.33-5.37A3.81,3.81,0,0,0,360.35,175.09Z"/><path class="cls-1" d="M425.29,106.84a8.48,8.48,0,0,1,3.58.79,13.4,13.4,0,0,1,3.11,2,14.82,14.82,0,0,1,2.39,2.58,7.49,7.49,0,0,1,1.25,2.46q-1.46.12-4.7,2.78a84.32,84.32,0,0,0-7.62,7.29,84.93,84.93,0,0,1,11,.66,71.6,71.6,0,0,1,8.61,1.59,24.34,24.34,0,0,1,5.5,2c1.28.71,1.88,1.32,1.79,1.85a65,65,0,0,0-8-1.59,62,62,0,0,0-8-.53,72.58,72.58,0,0,0-8.29.47q-4,.47-7.88,1.26-4.77,5.3-9.61,11.79t-9,13.32a119,119,0,0,0-7.16,13.52,46.24,46.24,0,0,0-3.77,12.65c.08,1.15.35,1.82.79,2A4.63,4.63,0,0,0,391,184a6.38,6.38,0,0,0,3-1.53c1.36-1,2.89-2.27,4.57-3.78s3.42-3.15,5.23-5,3.49-3.56,5-5.24,2.82-3.13,3.84-4.37a18.67,18.67,0,0,0,1.79-2.39,3.87,3.87,0,0,1,1.46.27,2.39,2.39,0,0,1,.93.46c.26.22.3.55.13,1a18.23,18.23,0,0,1-2,2.72q-1.86,2.33-4.9,5.63t-6.76,7.16q-3.72,3.84-7.42,7.16a73.06,73.06,0,0,1-7.16,5.69,15.45,15.45,0,0,1-5.83,2.79,2.82,2.82,0,0,1-1.86-.66,6,6,0,0,1-1.32-1.59,10.4,10.4,0,0,1-.86-2,13.16,13.16,0,0,1-.47-2,26.87,26.87,0,0,1,.4-10.14,77.36,77.36,0,0,1,3.84-12.46,136.65,136.65,0,0,1,6.56-14q3.91-7.29,8.82-14.58c-2.3,1.06-4.09,1.95-5.37,2.65a18,18,0,0,0-2.85,1.86,5,5,0,0,0-1.26,1.46c-.22.44-.42.88-.59,1.32-.45-.08-.82-.59-1.13-1.52a8.7,8.7,0,0,1-.27-3.51,13.86,13.86,0,0,1,1.33-4.51,12.5,12.5,0,0,1,3.91-4.5A25.75,25.75,0,0,1,395.4,129q2.06-.66,4.05-1.26c1.32-.4,2.56-.73,3.71-1s2-.45,2.65-.53a186.25,186.25,0,0,1,16.3-18.69A7,7,0,0,1,425.29,106.84Z"/><path class="cls-1" d="M403,194.17a8.12,8.12,0,0,1-3.77-7,21.63,21.63,0,0,1,2.45-9.67,52.92,52.92,0,0,1,7.09-10.74,73.86,73.86,0,0,1,10-9.93,59.19,59.19,0,0,1,11.2-7.29,24.48,24.48,0,0,1,10.8-2.85,3.94,3.94,0,0,1,1.19.13q4.78.79,6.76,3.11a10.83,10.83,0,0,1,2.52,4.84,13.82,13.82,0,0,1-.4,6.23A5.58,5.58,0,0,0,448,156.8a11.47,11.47,0,0,0-5.83-1.46,14.54,14.54,0,0,0-7.42,2,62.12,62.12,0,0,0-8,5.76,82.15,82.15,0,0,0-7.95,7.56,40.33,40.33,0,0,0-5.5,7.35q-1.92,3.45-.73,5a.77.77,0,0,0,.53.13,9.77,9.77,0,0,0,3.52-1.19q2.44-1.2,5.43-2.92c2-1.14,4-2.36,6.1-3.64S432,173,433.5,172c.44-.44,1.13-1.19,2.06-2.25s2-2.15,3.11-3.25a40.52,40.52,0,0,1,3.38-2.92,5,5,0,0,1,2.59-1.26,5.92,5.92,0,0,1,2.45.67,10.9,10.9,0,0,1,2.51,1.65,10,10,0,0,1,1.86,2.19,2.67,2.67,0,0,1,.46,2.12,19.49,19.49,0,0,0-6.09,3.78,33.21,33.21,0,0,0-4.9,5.3,17.25,17.25,0,0,0-2.72,5.1c-.49,1.59-.38,2.7.33,3.31a.76.76,0,0,0,.53.27c.79,0,2-.57,3.71-1.72s3.58-2.61,5.7-4.38,4.31-3.71,6.56-5.83,4.31-4.11,6.16-6,3.38-3.51,4.57-5,1.79-2.36,1.79-2.72h.4c.18,0,.37.13.6.4s.24,1,.06,2.12a21.19,21.19,0,0,1-2.71,4.17q-2.19,2.87-5.37,6.37t-7.09,7.28a91.55,91.55,0,0,1-7.89,6.83,57.8,57.8,0,0,1-7.68,5,14.27,14.27,0,0,1-6.5,2,8.27,8.27,0,0,1-1.52-.13,3.12,3.12,0,0,1-1.39-.66,7,7,0,0,1-3.12-4.64,11.65,11.65,0,0,1,.6-5.83q-2.25,1.46-5.3,3.25t-6.1,3.37q-3,1.59-5.76,2.72a12.29,12.29,0,0,1-4.44,1.13A1.82,1.82,0,0,1,403,194.17Z"/><path class="cls-1" d="M506.26,147.39a8.31,8.31,0,0,1,5.17,1.52,4.63,4.63,0,0,1,2,3.78c-.89.18-2.3,1.13-4.25,2.85a55.65,55.65,0,0,0-5.56,5.7,39.2,39.2,0,0,0-4.24,5.9c-1.06,1.85-1.2,3-.4,3.57a2.29,2.29,0,0,0,.53.2,2.52,2.52,0,0,0,.66.07,8.64,8.64,0,0,0,3.91-1.26c1.55-.84,7-3.35,7.57-3.72,1.53-.92,25.32-13.78,26.38-14.67s1.64-1.37,1.73-1.46c.53.18.55.73.06,1.66s-35.34,22.83-37.06,24a41.27,41.27,0,0,1-5,3,9.48,9.48,0,0,1-4.11,1.2,2.83,2.83,0,0,1-1.46-.4q-4.24-2.39-4.84-5.9t2.19-7.62a30.17,30.17,0,0,0-4.9,1.66q-2.66,1.13-5.3,2.51t-5,2.85q-2.38,1.47-4.24,2.65a120.44,120.44,0,0,0-6.49,10.87,37.78,37.78,0,0,0-3.58,8.88,7.32,7.32,0,0,1-3.45-2.85,9.88,9.88,0,0,1-1.32-3.78,12.33,12.33,0,0,1,.06-3.84,23.39,23.39,0,0,1,.73-3,35,35,0,0,1,1.59-3.38q1.33-2.58,3.25-6.09t4.31-7.49q2.38-4,5-7.62a69.44,69.44,0,0,1,5.16-6.49,19,19,0,0,1,4.84-4,11.7,11.7,0,0,1,2-.26,9.54,9.54,0,0,1,3.25.6,10,10,0,0,1,2.84,1.52,7.67,7.67,0,0,1,1.86,2,1.85,1.85,0,0,1,.27,1.85c-1.33.45-3.27,2-5.84,4.64a99.76,99.76,0,0,0-8.08,9.68q3.45-1.86,7.82-4.38t8.61-5.23q4.25-2.72,7.56-5.24a21.16,21.16,0,0,0,4.5-4.24,3.71,3.71,0,0,0,.67-.07A4.46,4.46,0,0,1,506.26,147.39Z"/><path class="cls-1" d="M534.34,144.73a4.89,4.89,0,0,0-3.69,4.61,3.11,3.11,0,0,0,2.82,3.12l3,.32-.59,4.1a3,3,0,0,0,2.18,3.4,3.9,3.9,0,0,0,3.69-1.1L552.84,141Z"/><circle class="cls-2" cx="242.5" cy="64.19" r="29.29"/><path class="cls-2" d="M232.76,107.86c-1.45,5.74-3.75,11.43-4.23,17.36-.26,3.21,4.74,3.19,5,0,.44-5.43,2.72-10.78,4.05-16,.79-3.12-4-4.45-4.82-1.33Z"/><path class="cls-2" d="M262,107.55a48.68,48.68,0,0,1,7.87,13.88c1.1,3,5.94,1.7,4.82-1.33A56.19,56.19,0,0,0,265.54,104c-2-2.5-5.54,1-3.54,3.54Z"/><path class="cls-2" d="M282.6,90.71a52,52,0,0,1,13.88,7.52c2.57,1.94,5.07-2.4,2.52-4.31a55.92,55.92,0,0,0-15.07-8c-3-1.08-4.34,3.75-1.33,4.83Z"/><path class="cls-2" d="M286.71,60.35q10.37-1.22,20.78-1.49c3.21-.09,3.23-5.09,0-5q-10.42.27-20.78,1.49c-3.16.38-3.19,5.38,0,5Z"/><path class="cls-2" d="M275.26,32.21c3.81-4.62,8.17-8.64,11.3-13.81,1.67-2.76-2.65-5.28-4.32-2.52-2.9,4.8-7,8.51-10.52,12.79-2,2.47,1.49,6,3.54,3.54Z"/><path class="cls-2" d="M245.41,16.61a95.24,95.24,0,0,1-1.49-14.2c-.1-3.21-5.11-3.22-5,0a103.86,103.86,0,0,0,1.67,15.53c.58,3.16,5.4,1.82,4.82-1.33Z"/><path class="cls-2" d="M200,91.6c-3.2,2.49-6.8,4.44-10.17,6.66-2.68,1.76-.18,6.09,2.52,4.32,3.75-2.46,7.64-4.68,11.18-7.44,2.54-2-1-5.49-3.53-3.54Z"/><path class="cls-2" d="M195,60.57c-5-.3-10-.83-15-1.12-3.21-.2-3.2,4.81,0,5,5,.29,10,.82,15,1.12,3.21.19,3.2-4.81,0-5Z"/><path class="cls-2" d="M210.14,31.59l-9.37-7.73c-2.47-2-6,1.49-3.54,3.54l9.38,7.73c2.46,2,6-1.49,3.53-3.54Z"/><path class="cls-1" d="M536.56,161.26a12.57,12.57,0,0,0,4.52,1,2.26,2.26,0,0,0,1.35-.27c2.23-1.33,3.08-4,4.59-5.41,2-1.86,2.9-4.62,3.69-7.25L552,145.1a6.16,6.16,0,0,1,.86-2c1-1.37,3-1.57,4.64-2s3.52-1.67,3.29-3.37a4,4,0,0,1-3.56,1.72c-1.38,0-2.75-.32-4.13-.3-2.77,0-5.29,1.49-7.9,2.42a21.7,21.7,0,0,1-9.11,1.21c-1.75-.14-3.61-.48-5.19.3-4.31,2.11-2,7.32.73,9.48,1.41,1.12,2.41,1.44,2.69,3.3C534.67,158.26,533.81,159.87,536.56,161.26Z"/></g></g></svg>